<svg xmlns="http://www.w3.org/2000/svg" viewBox="0 0 100 100">
  <circle cx="50" cy="50" r="48" fill="#000000"/>
  <path d="M50 18c-4 0-7.5 2.5-9 6 1.5 2 4 3.5 7 4 3-0.5 5.5-2 7-4-1.5-3.5-5-6-5-6z" fill="#A8A8A8"/>
  <path d="M50 28c-3 0-5.5 1-7.5 3-4 4-4.5 10-4.5 14 0 8 3.5 16 9 20 2 1.5 3 2 3 2s1-0.5 3-2c5.5-4 9-12 9-20 0-4-0.5-10-4.5-14-2-2-4.5-3-7.5-3z" fill="#A8A8A8"/>
  <text x="50" y="82" font-family="Arial, sans-serif" font-size="14" font-weight="600" fill="white" text-anchor="middle">tv+</text>
</svg>